<?xml version="1.0" encoding="UTF-8"?>
<svg xmlns="http://www.w3.org/2000/svg" version="1.1" viewBox="0 0 161 97" width="161pt" height="97pt" xmlns:inkscape="http://www.inkscape.org/namespaces/inkscape" xmlns:xlink="http://www.w3.org/1999/xlink">
 <title>ISBN 9781736961810</title>
 <defs>
  <clipPath id="Clip0">
   <path d="M0 0 L153.248 0 L153.248 87.203 L0 87.203 L0 0 Z"/>
  </clipPath>
 </defs>
 <g id="Background" inkscape:groupmode="layer" inkscape:label="Background">
  <g id="Group4" style="fill:none; stroke:none" clip-rule="evenodd" transform="translate(6.05578, 4.9375) scale(1, 1)" clip-path="url(#Clip0)">
   <g id="Group1" style="fill:none; stroke:none" transform="translate(0, 80.7374) scale(1, 1)">
    <path style="fill:#171615; fill-rule:nonzero;stroke:none;" transform="translate(54.2656, 0)" d="M3.39203 2.62763 C3.40795 2.81873 3.40795 2.97798 3.40795 3.0576 C3.40795 3.71053 3.2487 4.34753 2.96205 4.79342 C2.45245 5.55783 1.6562 6.03558 0.875875 6.03558 C0.684775 6.03558 0.493675 6.00373 0.398125 5.95595 C0.3185 5.90817 0.270725 5.89225 0.22295 5.89225 C0.111475 5.89225 0.03185 5.9878 0.03185 6.09928 C0.03185 6.29038 0.398125 6.46555 0.844025 6.46555 C1.49695 6.46555 2.1658 6.21075 2.70725 5.733 C3.45573 5.096 3.80608 4.22013 3.80608 3.04167 C3.80608 1.25808 2.96205 0 1.76767 0 C0.780325 0 0 0.875875 0 1.9747 C0 3.00983 0.780325 3.86978 1.70397 3.86978 C2.4206 3.86978 2.97798 3.45573 3.39203 2.62763 Z M3.32832 2.07025 C3.08945 2.53208 2.97798 2.70725 2.81873 2.8665 C2.50023 3.23278 2.08617 3.45573 1.7199 3.45573 C1.00328 3.45573 0.41405 2.78688 0.41405 1.9747 C0.41405 1.09883 1.00328 0.429975 1.75175 0.429975 C2.45245 0.429975 2.96205 0.8918 3.2487 1.73583 C3.26463 1.83138 3.26463 1.8473 3.32832 2.07025 Z"/>
    <path style="fill:#171615; fill-rule:nonzero;stroke:none;" transform="translate(60.3808, 0)" d="M0.41405 3.83792 C0.41405 3.64683 0.398125 3.48758 0.398125 3.40795 C0.398125 2.75503 0.5733 2.11803 0.85995 1.67213 C1.35362 0.907725 2.1658 0.429975 2.9302 0.429975 C3.13723 0.429975 3.3124 0.461825 3.40795 0.5096 C3.5035 0.557375 3.53535 0.5733 3.58312 0.5733 C3.6946 0.5733 3.77423 0.47775 3.77423 0.366275 C3.77423 0.175175 3.40795 0 2.97798 0 C2.30912 0 1.6562 0.2548 1.11475 0.73255 C0.35035 1.36955 0 2.24543 0 3.4398 C0 5.2234 0.844025 6.46555 2.05433 6.46555 C3.04167 6.46555 3.80608 5.58967 3.80608 4.49085 C3.80608 3.45573 3.04167 2.59578 2.11803 2.59578 C1.38547 2.59578 0.844025 3.00983 0.41405 3.83792 Z M0.47775 4.3953 C0.716625 3.9494 0.844025 3.7583 0.98735 3.59905 C1.32178 3.23278 1.7199 3.00983 2.1021 3.00983 C2.81873 3.00983 3.39203 3.6946 3.39203 4.49085 C3.39203 5.36673 2.81873 6.03558 2.05433 6.03558 C1.36955 6.03558 0.844025 5.58967 0.5733 4.72973 C0.54145 4.63417 0.54145 4.61825 0.47775 4.3953 Z"/>
    <path style="fill:#171615; fill-rule:nonzero;stroke:none;" transform="translate(66.2571, 0.0637)" d="M2.11802 0 L0.238875 0.589225 C0.079625 0.652925 0.03185 0.7007 0.03185 0.8281 C0.03185 0.92365 0.1274 1.0192 0.22295 1.0192 C0.238875 1.0192 0.3185 1.00327 0.366275 0.98735 L1.70397 0.5733 L1.70397 5.82855 L0.28665 5.82855 C0.09555 5.82855 0 5.89225 0 6.03557 C0 6.1789 0.111475 6.2426 0.28665 6.2426 L3.53535 6.2426 C3.72645 6.2426 3.822 6.1789 3.822 6.03557 C3.822 5.89225 3.72645 5.82855 3.53535 5.82855 L2.11802 5.82855 L2.11802 0 Z"/>
    <path style="fill:#171615; fill-rule:nonzero;stroke:none;" transform="translate(72.3723, 0)" d="M2.6754 3.1213 C3.39202 2.75503 3.71052 2.30913 3.71052 1.68805 C3.71052 0.7644 2.88242 0 1.911 0 C0.939575 0 0.111475 0.7644 0.111475 1.68805 C0.111475 2.30913 0.429975 2.75503 1.1466 3.1213 C0.398125 3.45573 0 3.99717 0 4.66603 C0 5.65338 0.85995 6.46555 1.911 6.46555 C2.96205 6.46555 3.822 5.65338 3.822 4.66603 C3.822 3.99717 3.42387 3.45573 2.6754 3.1213 Z M1.911 0.429975 C2.69132 0.429975 3.29648 1.00328 3.29648 1.7199 C3.29648 2.38875 2.6754 2.91428 1.911 2.91428 C1.13067 2.91428 0.525525 2.38875 0.525525 1.70397 C0.525525 1.00328 1.13067 0.429975 1.911 0.429975 Z M1.911 3.3124 C2.75502 3.3124 3.39202 3.90163 3.39202 4.68195 C3.39202 5.43042 2.72317 6.03558 1.911 6.03558 C1.0829 6.03558 0.429975 5.43042 0.429975 4.66603 C0.429975 3.91755 1.0829 3.3124 1.911 3.3124 Z"/>
    <path style="fill:#171615; fill-rule:nonzero;stroke:none;" transform="translate(78.4875, 0.0637)" d="M2.11802 0 L0.238875 0.589225 C0.079625 0.652925 0.03185 0.7007 0.03185 0.8281 C0.03185 0.92365 0.1274 1.0192 0.22295 1.0192 C0.238875 1.0192 0.3185 1.00327 0.366275 0.98735 L1.70397 0.5733 L1.70397 5.82855 L0.28665 5.82855 C0.09555 5.82855 0 5.89225 0 6.03557 C0 6.1789 0.111475 6.2426 0.28665 6.2426 L3.53535 6.2426 C3.72645 6.2426 3.822 6.1789 3.822 6.03557 C3.822 5.89225 3.72645 5.82855 3.53535 5.82855 L2.11802 5.82855 L2.11802 0 Z"/>
    <path style="fill:#171615; fill-rule:nonzero;stroke:none;" transform="translate(84.6027, 0)" d="M3.822 2.72317 C3.822 1.11475 3.04167 0 1.911 0 C0.780325 0 0 1.11475 0 2.72317 L0 3.74238 C0 5.3508 0.780325 6.46555 1.911 6.46555 C3.04167 6.46555 3.822 5.3508 3.822 3.74238 L3.822 2.72317 Z M0.429975 2.78688 C0.429975 2.13395 0.60515 1.43325 0.907725 0.971425 C1.13067 0.621075 1.48102 0.429975 1.911 0.429975 C2.34098 0.429975 2.69132 0.621075 2.91427 0.971425 C3.21685 1.43325 3.39202 2.13395 3.39202 2.78688 L3.39202 3.6946 C3.39202 4.3316 3.21685 5.0323 2.91427 5.49413 C2.69132 5.84448 2.34098 6.03558 1.911 6.03558 C1.48102 6.03558 1.13067 5.84448 0.907725 5.49413 C0.60515 5.0323 0.429975 4.3316 0.429975 3.6946 L0.429975 2.78688 Z"/>
    <path style="fill:#171615; fill-rule:nonzero;stroke:none;" transform="translate(10.6147, 0.143325)" d="M3.39203 0.60515 L1.75175 5.84448 C1.75175 5.87632 1.73583 5.94003 1.73583 5.97187 C1.73583 6.08335 1.83138 6.1789 1.94285 6.1789 C2.0384 6.1789 2.08618 6.1152 2.14988 5.95595 L3.80607 0.66885 L3.80607 0 L0 0 L0 0.780325 C0 0.971425 0.079625 1.06697 0.22295 1.06697 C0.35035 1.06697 0.41405 0.971425 0.41405 0.780325 L0.41405 0.429975 L3.39203 0.429975 L3.39203 0.60515 Z"/>
    <path style="fill:#171615; fill-rule:nonzero;stroke:none;" transform="translate(16.8095, 0)" d="M2.6754 3.1213 C3.39203 2.75503 3.71053 2.30913 3.71053 1.68805 C3.71053 0.7644 2.88243 0 1.911 0 C0.939575 0 0.111475 0.7644 0.111475 1.68805 C0.111475 2.30913 0.429975 2.75503 1.1466 3.1213 C0.398125 3.45573 0 3.99717 0 4.66603 C0 5.65338 0.85995 6.46555 1.911 6.46555 C2.96205 6.46555 3.822 5.65338 3.822 4.66603 C3.822 3.99717 3.42388 3.45573 2.6754 3.1213 Z M1.911 0.429975 C2.69132 0.429975 3.29648 1.00328 3.29648 1.7199 C3.29648 2.38875 2.6754 2.91428 1.911 2.91428 C1.13068 2.91428 0.525525 2.38875 0.525525 1.70397 C0.525525 1.00328 1.13068 0.429975 1.911 0.429975 Z M1.911 3.3124 C2.75502 3.3124 3.39203 3.90163 3.39203 4.68195 C3.39203 5.43042 2.72318 6.03558 1.911 6.03558 C1.0829 6.03558 0.429975 5.43042 0.429975 4.66603 C0.429975 3.91755 1.0829 3.3124 1.911 3.3124 Z"/>
    <path style="fill:#171615; fill-rule:nonzero;stroke:none;" transform="translate(22.9247, 0.0637)" d="M2.11803 0 L0.238875 0.589225 C0.079625 0.652925 0.03185 0.7007 0.03185 0.8281 C0.03185 0.92365 0.1274 1.0192 0.22295 1.0192 C0.238875 1.0192 0.3185 1.00327 0.366275 0.98735 L1.70397 0.5733 L1.70397 5.82855 L0.28665 5.82855 C0.09555 5.82855 0 5.89225 0 6.03557 C0 6.1789 0.111475 6.2426 0.28665 6.2426 L3.53535 6.2426 C3.72645 6.2426 3.822 6.1789 3.822 6.03557 C3.822 5.89225 3.72645 5.82855 3.53535 5.82855 L2.11803 5.82855 L2.11803 0 Z"/>
    <path style="fill:#171615; fill-rule:nonzero;stroke:none;" transform="translate(28.9603, 0.143325)" d="M3.39203 0.60515 L1.75175 5.84448 C1.75175 5.87632 1.73582 5.94003 1.73582 5.97187 C1.73582 6.08335 1.83138 6.1789 1.94285 6.1789 C2.0384 6.1789 2.08618 6.1152 2.14988 5.95595 L3.80607 0.66885 L3.80607 0 L0 0 L0 0.780325 C0 0.971425 0.079625 1.06697 0.22295 1.06697 C0.35035 1.06697 0.41405 0.971425 0.41405 0.780325 L0.41405 0.429975 L3.39203 0.429975 L3.39203 0.60515 Z"/>
    <path style="fill:#171615; fill-rule:nonzero;stroke:none;" transform="translate(34.98, 0)" d="M2.83465 2.96205 C2.8665 2.94613 2.88242 2.94613 2.89835 2.94613 C3.5035 2.69133 3.8857 2.1658 3.8857 1.57658 C3.8857 0.684775 3.1213 0 2.1021 0 C1.56065 0 1.05105 0.175175 0.652925 0.47775 C0.4459 0.637 0.302575 0.8281 0.302575 0.92365 C0.302575 1.0192 0.398125 1.11475 0.5096 1.11475 C0.589225 1.11475 0.621075 1.09883 0.716625 0.971425 C1.0192 0.637 1.51287 0.429975 2.08617 0.429975 C2.8665 0.429975 3.47165 0.92365 3.47165 1.5925 C3.47165 2.02248 3.185 2.4206 2.75502 2.59578 C2.548 2.69133 2.38875 2.70725 1.87915 2.70725 C1.70397 2.70725 1.5925 2.78688 1.5925 2.91428 C1.5925 3.0576 1.68805 3.1213 1.87915 3.1213 C2.8665 3.1213 3.6946 3.80608 3.6946 4.5864 C3.6946 5.38265 2.91427 6.03558 1.99062 6.03558 C1.41732 6.03558 0.85995 5.84448 0.366275 5.4782 C0.302575 5.43042 0.2548 5.4145 0.207025 5.4145 C0.09555 5.4145 0 5.49413 0 5.6056 C0 5.733 0.143325 5.8604 0.47775 6.03558 C1.00327 6.32223 1.48102 6.46555 1.99062 6.46555 C3.15315 6.46555 4.10865 5.62153 4.10865 4.5864 C4.10865 3.90163 3.6309 3.29648 2.83465 2.96205 Z"/>
    <path style="fill:#171615; fill-rule:nonzero;stroke:none;" transform="translate(41.5092, 0)" d="M0.41405 3.83792 C0.41405 3.64683 0.398125 3.48758 0.398125 3.40795 C0.398125 2.75503 0.5733 2.11803 0.85995 1.67213 C1.35363 0.907725 2.1658 0.429975 2.9302 0.429975 C3.13723 0.429975 3.3124 0.461825 3.40795 0.5096 C3.5035 0.557375 3.53535 0.5733 3.58313 0.5733 C3.6946 0.5733 3.77423 0.47775 3.77423 0.366275 C3.77423 0.175175 3.40795 0 2.97798 0 C2.30913 0 1.6562 0.2548 1.11475 0.73255 C0.35035 1.36955 0 2.24543 0 3.4398 C0 5.2234 0.844025 6.46555 2.05432 6.46555 C3.04167 6.46555 3.80607 5.58967 3.80607 4.49085 C3.80607 3.45573 3.04167 2.59578 2.11803 2.59578 C1.38547 2.59578 0.844025 3.00983 0.41405 3.83792 Z M0.47775 4.3953 C0.716625 3.9494 0.844025 3.7583 0.98735 3.59905 C1.32178 3.23278 1.7199 3.00983 2.1021 3.00983 C2.81873 3.00983 3.39203 3.6946 3.39203 4.49085 C3.39203 5.36673 2.81873 6.03558 2.05432 6.03558 C1.36955 6.03558 0.844025 5.58967 0.5733 4.72973 C0.54145 4.63417 0.54145 4.61825 0.47775 4.3953 Z"/>
    <path style="fill:#171615; fill-rule:nonzero;stroke:none;" transform="translate(0, 0)" d="M3.39202 2.62763 C3.40795 2.81873 3.40795 2.97798 3.40795 3.0576 C3.40795 3.71053 3.2487 4.34753 2.96205 4.79342 C2.45245 5.55783 1.6562 6.03558 0.875875 6.03558 C0.684775 6.03558 0.493675 6.00373 0.398125 5.95595 C0.3185 5.90817 0.270725 5.89225 0.22295 5.89225 C0.111475 5.89225 0.03185 5.9878 0.03185 6.09928 C0.03185 6.29038 0.398125 6.46555 0.844025 6.46555 C1.49695 6.46555 2.1658 6.21075 2.70725 5.733 C3.45573 5.096 3.80607 4.22013 3.80607 3.04167 C3.80607 1.25808 2.96205 0 1.76767 0 C0.780325 0 0 0.875875 0 1.9747 C0 3.00983 0.780325 3.86978 1.70397 3.86978 C2.4206 3.86978 2.97797 3.45573 3.39202 2.62763 Z M3.32833 2.07025 C3.08945 2.53208 2.97797 2.70725 2.81872 2.8665 C2.50022 3.23278 2.08617 3.45573 1.7199 3.45573 C1.00327 3.45573 0.41405 2.78688 0.41405 1.9747 C0.41405 1.09883 1.00327 0.429975 1.75175 0.429975 C2.45245 0.429975 2.96205 0.8918 3.2487 1.73583 C3.26462 1.83138 3.26462 1.8473 3.32833 2.07025 Z"/>
   </g>
   <path style="fill:none;stroke-width:0.936; stroke-linecap:butt; stroke-linejoin:miter; stroke-dasharray:none; stroke:#171615;" transform="translate(4.91222, 7.5625)" d="M0 77 L0 0 "/>
   <path style="fill:none;stroke-width:0.936; stroke-linecap:butt; stroke-linejoin:miter; stroke-dasharray:none; stroke:#171615;" transform="translate(6.78402, 7.5625)" d="M0 77 L0 0 "/>
   <path style="fill:none;stroke-width:2.808; stroke-linecap:butt; stroke-linejoin:miter; stroke-dasharray:none; stroke:#171615;" transform="translate(9.59222, 7.5625)" d="M0 72 L0 0 "/>
   <path style="fill:none;stroke-width:1.872; stroke-linecap:butt; stroke-linejoin:miter; stroke-dasharray:none; stroke:#171615;" transform="translate(12.868, 7.5625)" d="M0 72 L0 0 "/>
   <path style="fill:none;stroke-width:0.936; stroke-linecap:butt; stroke-linejoin:miter; stroke-dasharray:none; stroke:#171615;" transform="translate(17.0801, 7.5625)" d="M0 72 L0 0 "/>
   <path style="fill:none;stroke-width:0.936; stroke-linecap:butt; stroke-linejoin:miter; stroke-dasharray:none; stroke:#171615;" transform="translate(19.8883, 7.5625)" d="M0 72 L0 0 "/>
   <path style="fill:none;stroke-width:1.872; stroke-linecap:butt; stroke-linejoin:miter; stroke-dasharray:none; stroke:#171615;" transform="translate(22.2282, 7.5625)" d="M0 72 L0 0 "/>
   <path style="fill:none;stroke-width:1.872; stroke-linecap:butt; stroke-linejoin:miter; stroke-dasharray:none; stroke:#171615;" transform="translate(25.9723, 7.5625)" d="M0 72 L0 0 "/>
   <path style="fill:none;stroke-width:2.808; stroke-linecap:butt; stroke-linejoin:miter; stroke-dasharray:none; stroke:#171615;" transform="translate(29.2481, 7.5625)" d="M0 72 L0 0 "/>
   <path style="fill:none;stroke-width:1.872; stroke-linecap:butt; stroke-linejoin:miter; stroke-dasharray:none; stroke:#171615;" transform="translate(32.5243, 7.5625)" d="M0 72 L0 0 "/>
   <path style="fill:none;stroke-width:0.936; stroke-linecap:butt; stroke-linejoin:miter; stroke-dasharray:none; stroke:#171615;" transform="translate(34.8641, 7.5625)" d="M0 72 L0 0 "/>
   <path style="fill:none;stroke-width:0.936; stroke-linecap:butt; stroke-linejoin:miter; stroke-dasharray:none; stroke:#171615;" transform="translate(39.5442, 7.5625)" d="M0 72 L0 0 "/>
   <path style="fill:none;stroke-width:0.936; stroke-linecap:butt; stroke-linejoin:miter; stroke-dasharray:none; stroke:#171615;" transform="translate(41.4161, 7.5625)" d="M0 72 L0 0 "/>
   <path style="fill:none;stroke-width:3.744; stroke-linecap:butt; stroke-linejoin:miter; stroke-dasharray:none; stroke:#171615;" transform="translate(44.6922, 7.5625)" d="M0 72 L0 0 "/>
   <path style="fill:none;stroke-width:0.936; stroke-linecap:butt; stroke-linejoin:miter; stroke-dasharray:none; stroke:#171615;" transform="translate(47.968, 7.5625)" d="M0 77 L0 0 "/>
   <path style="fill:none;stroke-width:0.936; stroke-linecap:butt; stroke-linejoin:miter; stroke-dasharray:none; stroke:#171615;" transform="translate(49.8403, 7.5625)" d="M0 77 L0 0 "/>
   <path style="fill:none;stroke-width:2.808; stroke-linecap:butt; stroke-linejoin:miter; stroke-dasharray:none; stroke:#171615;" transform="translate(52.6481, 7.5625)" d="M0 72 L0 0 "/>
   <path style="fill:none;stroke-width:0.936; stroke-linecap:butt; stroke-linejoin:miter; stroke-dasharray:none; stroke:#171615;" transform="translate(55.4563, 7.5625)" d="M0 72 L0 0 "/>
   <path style="fill:none;stroke-width:0.936; stroke-linecap:butt; stroke-linejoin:miter; stroke-dasharray:none; stroke:#171615;" transform="translate(58.2641, 7.5625)" d="M0 72 L0 0 "/>
   <path style="fill:none;stroke-width:0.936; stroke-linecap:butt; stroke-linejoin:miter; stroke-dasharray:none; stroke:#171615;" transform="translate(60.1364, 7.5625)" d="M0 72 L0 0 "/>
   <path style="fill:none;stroke-width:1.872; stroke-linecap:butt; stroke-linejoin:miter; stroke-dasharray:none; stroke:#171615;" transform="translate(65.284, 7.5625)" d="M0 72 L0 0 "/>
   <path style="fill:none;stroke-width:1.872; stroke-linecap:butt; stroke-linejoin:miter; stroke-dasharray:none; stroke:#171615;" transform="translate(69.0282, 7.5625)" d="M0 72 L0 0 "/>
   <path style="fill:none;stroke-width:0.936; stroke-linecap:butt; stroke-linejoin:miter; stroke-dasharray:none; stroke:#171615;" transform="translate(71.368, 7.5625)" d="M0 72 L0 0 "/>
   <path style="fill:none;stroke-width:0.936; stroke-linecap:butt; stroke-linejoin:miter; stroke-dasharray:none; stroke:#171615;" transform="translate(74.1762, 7.5625)" d="M0 72 L0 0 "/>
   <path style="fill:none;stroke-width:1.872; stroke-linecap:butt; stroke-linejoin:miter; stroke-dasharray:none; stroke:#171615;" transform="translate(78.3883, 7.5625)" d="M0 72 L0 0 "/>
   <path style="fill:none;stroke-width:1.872; stroke-linecap:butt; stroke-linejoin:miter; stroke-dasharray:none; stroke:#171615;" transform="translate(82.1321, 7.5625)" d="M0 72 L0 0 "/>
   <path style="fill:none;stroke-width:2.808; stroke-linecap:butt; stroke-linejoin:miter; stroke-dasharray:none; stroke:#171615;" transform="translate(85.4083, 7.5625)" d="M0 72 L0 0 "/>
   <path style="fill:none;stroke-width:0.936; stroke-linecap:butt; stroke-linejoin:miter; stroke-dasharray:none; stroke:#171615;" transform="translate(89.152, 7.5625)" d="M0 72 L0 0 "/>
   <path style="fill:none;stroke-width:0.936; stroke-linecap:butt; stroke-linejoin:miter; stroke-dasharray:none; stroke:#171615;" transform="translate(91.0243, 7.5625)" d="M0 77 L0 0 "/>
   <path style="fill:none;stroke-width:0.936; stroke-linecap:butt; stroke-linejoin:miter; stroke-dasharray:none; stroke:#171615;" transform="translate(92.8962, 7.5625)" d="M0 77 L0 0 "/>
   <g id="Group2" style="fill:none; stroke:none" transform="translate(2.33405, 0) scale(1, 1)">
    <path style="fill:#171615; fill-rule:nonzero;stroke:none;" transform="translate(0, 0.5)" d="M1.85938 0.359375 L3.10938 0.359375 C3.28125 0.359375 3.375 0.296875 3.375 0.171875 C3.375 0.0625 3.28125 0 3.10938 0 L0.25 0 C0.078125 0 0 0.0625 0 0.171875 C0 0.296875 0.078125 0.359375 0.25 0.359375 L1.5 0.359375 L1.5 4.6875 L0.25 4.6875 C0.078125 4.6875 0 4.75 0 4.875 C0 5 0.078125 5.0625 0.25 5.0625 L3.10938 5.0625 C3.28125 5.0625 3.375 5 3.375 4.875 C3.375 4.75 3.28125 4.6875 3.10938 4.6875 L1.85938 4.6875 L1.85938 0.359375 Z"/>
    <path style="fill:#171615; fill-rule:nonzero;stroke:none;" transform="translate(5.2125, 0.375)" d="M3.17188 0.53125 C2.79688 0.171875 2.39063 0 1.85938 0 C0.921875 0 0.203125 0.609375 0.203125 1.40625 C0.203125 1.78125 0.375 2.125 0.671875 2.32813 C0.9375 2.53125 1.26563 2.64063 1.90625 2.75 C2.53125 2.85938 2.73438 2.90625 2.9375 3.04688 C3.1875 3.20313 3.34375 3.5 3.34375 3.8125 C3.34375 4.46875 2.71875 4.96875 1.875 4.96875 C1.0625 4.96875 0.390625 4.5 0.375 3.90625 C0.359375 3.76563 0.3125 3.6875 0.1875 3.6875 C0.0625 3.6875 0 3.78125 0 3.9375 L0 4.9375 C0 5.10938 0.0625 5.1875 0.1875 5.1875 C0.3125 5.1875 0.375 5.10938 0.375 4.9375 L0.375 4.6875 C0.734375 5.10938 1.26563 5.32813 1.89063 5.32813 C2.96875 5.32813 3.75 4.70313 3.75 3.82813 C3.75 3.375 3.53125 2.98438 3.1875 2.76563 C2.92188 2.59375 2.65625 2.53125 1.96875 2.40625 C1.40625 2.3125 1.1875 2.25 0.953125 2.09375 C0.734375 1.9375 0.609375 1.6875 0.609375 1.40625 C0.609375 0.8125 1.15625 0.375 1.89063 0.375 C2.59375 0.375 3.14063 0.78125 3.17188 1.3125 C3.1875 1.46875 3.25 1.53125 3.35938 1.53125 C3.48438 1.53125 3.54688 1.45313 3.54688 1.29688 L3.54688 0.359375 C3.54688 0.203125 3.48438 0.125 3.35938 0.125 C3.23438 0.125 3.17188 0.203125 3.17188 0.359375 L3.17188 0.53125 Z"/>
    <path style="fill:#171615; fill-rule:nonzero;stroke:none;" transform="translate(10.175, 0.5)" d="M0.71875 4.6875 L0.234375 4.6875 C0.078125 4.6875 0 4.75 0 4.875 C0 5 0.078125 5.0625 0.234375 5.0625 L3 5.0625 C3.8125 5.0625 4.48438 4.4375 4.48438 3.6875 C4.48438 3.07813 4.09375 2.65625 3.32813 2.375 C3.85938 2.09375 4.09375 1.76563 4.09375 1.29688 C4.09375 0.5625 3.4375 0 2.5625 0 L0.234375 0 C0.078125 0 0 0.0625 0 0.171875 C0 0.296875 0.078125 0.359375 0.234375 0.359375 L0.71875 0.359375 L0.71875 4.6875 Z M1.09375 2.25 L1.09375 0.359375 L2.57813 0.359375 C3.23438 0.359375 3.73438 0.765625 3.73438 1.29688 C3.73438 1.84375 3.1875 2.25 2.42188 2.25 L1.09375 2.25 Z M1.09375 4.6875 L1.09375 2.60938 L2.4375 2.60938 C2.98438 2.60938 3.29688 2.67188 3.57813 2.84375 C3.90625 3.04688 4.10938 3.35938 4.10938 3.6875 C4.10938 4.25 3.60938 4.6875 2.96875 4.6875 L1.09375 4.6875 Z"/>
    <path style="fill:#171615; fill-rule:nonzero;stroke:none;" transform="translate(15.3875, 0.5)" d="M4.3125 5.0625 L4.3125 0.359375 L4.60938 0.359375 C4.78125 0.359375 4.85938 0.296875 4.85938 0.171875 C4.85938 0.0625 4.78125 0 4.60938 0 L3.26563 0 C3.09375 0 3.01563 0.0625 3.01563 0.171875 C3.01563 0.296875 3.09375 0.359375 3.26563 0.359375 L3.9375 0.359375 L3.9375 4.53125 L1.1875 0 L0.234375 0 C0.078125 0 0 0.0625 0 0.171875 C0 0.296875 0.078125 0.359375 0.234375 0.359375 L0.71875 0.359375 L0.71875 4.6875 L0.421875 4.6875 C0.25 4.6875 0.171875 4.75 0.171875 4.875 C0.171875 5 0.25 5.0625 0.421875 5.0625 L1.76563 5.0625 C1.92188 5.0625 2.01563 5 2.01563 4.875 C2.01563 4.75 1.9375 4.6875 1.76563 4.6875 L1.09375 4.6875 L1.09375 0.53125 L3.84375 5.0625 L4.3125 5.0625 Z"/>
    <path style="fill:#171615; fill-rule:nonzero;stroke:none;" transform="translate(27.2031, 0)" d="M3 2.3125 C3.01563 2.48438 3.01563 2.625 3.01563 2.70313 C3.01563 3.28125 2.875 3.82813 2.60938 4.23438 C2.17188 4.90625 1.46875 5.32813 0.78125 5.32813 C0.609375 5.32813 0.453125 5.29688 0.359375 5.25 C0.28125 5.21875 0.25 5.20313 0.203125 5.20313 C0.109375 5.20313 0.03125 5.28125 0.03125 5.375 C0.03125 5.54688 0.359375 5.70313 0.75 5.70313 C1.32813 5.70313 1.90625 5.46875 2.39063 5.0625 C3.0625 4.48438 3.375 3.71875 3.375 2.67188 C3.375 1.09375 2.625 0 1.5625 0 C0.6875 0 0 0.765625 0 1.73438 C0 2.65625 0.6875 3.40625 1.51563 3.40625 C2.14063 3.40625 2.64063 3.04688 3 2.3125 Z M2.95313 1.82813 C2.73438 2.21875 2.64063 2.39063 2.5 2.53125 C2.20313 2.85938 1.84375 3.04688 1.51563 3.04688 C0.890625 3.04688 0.375 2.45313 0.375 1.73438 C0.375 0.96875 0.890625 0.375 1.54688 0.375 C2.17188 0.375 2.625 0.78125 2.875 1.53125 C2.89063 1.60938 2.89063 1.625 2.95313 1.82813 Z"/>
    <path style="fill:#171615; fill-rule:nonzero;stroke:none;" transform="translate(32.3219, 0.125)" d="M3 0.53125 L1.5625 5.15625 C1.54688 5.1875 1.53125 5.23438 1.53125 5.26563 C1.53125 5.35938 1.625 5.45313 1.71875 5.45313 C1.8125 5.45313 1.85938 5.40625 1.89063 5.25 L3.35938 0.59375 L3.35938 0 L0 0 L0 0.6875 C0 0.859375 0.078125 0.9375 0.203125 0.9375 C0.3125 0.9375 0.375 0.859375 0.375 0.6875 L0.375 0.375 L3 0.375 L3 0.53125 Z"/>
    <path style="fill:#171615; fill-rule:nonzero;stroke:none;" transform="translate(37.8, 0)" d="M2.35938 2.75 C3 2.42188 3.28125 2.03125 3.28125 1.48438 C3.28125 0.671875 2.54688 0 1.6875 0 C0.828125 0 0.09375 0.671875 0.09375 1.48438 C0.09375 2.03125 0.375 2.42188 1.01563 2.75 C0.359375 3.04688 0 3.51563 0 4.10938 C0 4.98438 0.75 5.70313 1.6875 5.70313 C2.60938 5.70313 3.375 4.98438 3.375 4.10938 C3.375 3.51563 3.01563 3.04688 2.35938 2.75 Z M1.6875 0.375 C2.375 0.375 2.90625 0.875 2.90625 1.51563 C2.90625 2.09375 2.35938 2.5625 1.6875 2.5625 C1 2.5625 0.453125 2.09375 0.453125 1.5 C0.453125 0.875 1 0.375 1.6875 0.375 Z M1.6875 2.92188 C2.4375 2.92188 3 3.4375 3 4.125 C3 4.78125 2.40625 5.32813 1.6875 5.32813 C0.953125 5.32813 0.375 4.78125 0.375 4.10938 C0.375 3.45313 0.953125 2.92188 1.6875 2.92188 Z"/>
    <path style="fill:#171615; fill-rule:nonzero;stroke:none;" transform="translate(43.2, 0.046875)" d="M1.875 0 L0.203125 0.53125 C0.0625 0.578125 0.015625 0.625 0.015625 0.734375 C0.015625 0.8125 0.109375 0.90625 0.1875 0.90625 C0.203125 0.90625 0.28125 0.890625 0.3125 0.875 L1.5 0.5 L1.5 5.14063 L0.25 5.14063 C0.078125 5.14063 0 5.20313 0 5.32813 C0 5.45313 0.09375 5.51563 0.25 5.51563 L3.125 5.51563 C3.28125 5.51563 3.375 5.45313 3.375 5.32813 C3.375 5.20313 3.28125 5.14063 3.125 5.14063 L1.875 5.14063 L1.875 0 Z"/>
    <path style="fill:#171615; fill-rule:nonzero;stroke:none;" transform="translate(48.5219, 0.125)" d="M3 0.53125 L1.5625 5.15625 C1.54688 5.1875 1.53125 5.23438 1.53125 5.26563 C1.53125 5.35938 1.625 5.45313 1.71875 5.45313 C1.8125 5.45313 1.85938 5.40625 1.89063 5.25 L3.35938 0.59375 L3.35938 0 L0 0 L0 0.6875 C0 0.859375 0.078125 0.9375 0.203125 0.9375 C0.3125 0.9375 0.375 0.859375 0.375 0.6875 L0.375 0.375 L3 0.375 L3 0.53125 Z"/>
    <path style="fill:#171615; fill-rule:nonzero;stroke:none;" transform="translate(53.8437, 0)" d="M2.5 2.60938 C2.53125 2.59375 2.54688 2.59375 2.54688 2.59375 C3.09375 2.375 3.4375 1.90625 3.4375 1.39063 C3.4375 0.609375 2.75 0 1.84375 0 C1.375 0 0.9375 0.140625 0.578125 0.421875 C0.390625 0.5625 0.265625 0.71875 0.265625 0.8125 C0.265625 0.90625 0.34375 0.984375 0.453125 0.984375 C0.515625 0.984375 0.546875 0.96875 0.640625 0.859375 C0.890625 0.546875 1.34375 0.375 1.84375 0.375 C2.53125 0.375 3.0625 0.8125 3.0625 1.39063 C3.0625 1.78125 2.8125 2.125 2.4375 2.28125 C2.25 2.375 2.10938 2.39063 1.65625 2.39063 C1.5 2.39063 1.40625 2.45313 1.40625 2.5625 C1.40625 2.6875 1.48438 2.75 1.65625 2.75 C2.53125 2.75 3.26563 3.34375 3.26563 4.04688 C3.26563 4.75 2.57813 5.32813 1.76563 5.32813 C1.25 5.32813 0.75 5.15625 0.328125 4.82813 C0.265625 4.78125 0.234375 4.76563 0.171875 4.76563 C0.078125 4.76563 0 4.84375 0 4.9375 C0 5.0625 0.125 5.17188 0.421875 5.32813 C0.890625 5.57813 1.3125 5.70313 1.75 5.70313 C2.78125 5.70313 3.625 4.95313 3.625 4.04688 C3.625 3.4375 3.20313 2.90625 2.5 2.60938 Z"/>
    <path style="fill:#171615; fill-rule:nonzero;stroke:none;" transform="translate(59.6031, 0)" d="M0.375 3.39063 C0.359375 3.21875 0.359375 3.07813 0.359375 3 C0.359375 2.42188 0.515625 1.85938 0.765625 1.46875 C1.20313 0.796875 1.90625 0.375 2.59375 0.375 C2.76563 0.375 2.9375 0.390625 3.01563 0.4375 C3.09375 0.484375 3.125 0.5 3.17188 0.5 C3.26563 0.5 3.34375 0.421875 3.34375 0.3125 C3.34375 0.140625 3.01563 0 2.64063 0 C2.04688 0 1.46875 0.21875 0.984375 0.640625 C0.3125 1.20313 0 1.98438 0 3.03125 C0 4.59375 0.75 5.70313 1.8125 5.70313 C2.6875 5.70313 3.375 4.9375 3.375 3.95313 C3.375 3.04688 2.6875 2.28125 1.875 2.28125 C1.23438 2.28125 0.75 2.64063 0.375 3.39063 Z M0.421875 3.875 C0.640625 3.46875 0.75 3.3125 0.875 3.17188 C1.17188 2.84375 1.53125 2.65625 1.85938 2.65625 C2.48438 2.65625 3 3.25 3 3.95313 C3 4.73438 2.48438 5.32813 1.82813 5.32813 C1.21875 5.32813 0.75 4.92188 0.515625 4.17188 C0.484375 4.09375 0.484375 4.07813 0.421875 3.875 Z"/>
    <path style="fill:#171615; fill-rule:nonzero;stroke:none;" transform="translate(65.0031, 0)" d="M3 2.3125 C3.01563 2.48438 3.01563 2.625 3.01563 2.70313 C3.01563 3.28125 2.875 3.82813 2.60938 4.23438 C2.17188 4.90625 1.46875 5.32813 0.78125 5.32813 C0.609375 5.32813 0.453125 5.29688 0.359375 5.25 C0.28125 5.21875 0.25 5.20313 0.203125 5.20313 C0.109375 5.20313 0.03125 5.28125 0.03125 5.375 C0.03125 5.54688 0.359375 5.70313 0.75 5.70313 C1.32813 5.70313 1.90625 5.46875 2.39063 5.0625 C3.0625 4.48438 3.375 3.71875 3.375 2.67188 C3.375 1.09375 2.625 0 1.5625 0 C0.6875 0 0 0.765625 0 1.73438 C0 2.65625 0.6875 3.40625 1.51563 3.40625 C2.14063 3.40625 2.64063 3.04688 3 2.3125 Z M2.95313 1.82813 C2.73438 2.21875 2.64063 2.39063 2.5 2.53125 C2.20313 2.85938 1.84375 3.04688 1.51563 3.04688 C0.890625 3.04688 0.375 2.45313 0.375 1.73438 C0.375 0.96875 0.890625 0.375 1.54688 0.375 C2.17188 0.375 2.625 0.78125 2.875 1.53125 C2.89063 1.60938 2.89063 1.625 2.95313 1.82813 Z"/>
    <path style="fill:#171615; fill-rule:nonzero;stroke:none;" transform="translate(70.4031, 0)" d="M0.375 3.39063 C0.359375 3.21875 0.359375 3.07813 0.359375 3 C0.359375 2.42188 0.515625 1.85938 0.765625 1.46875 C1.20313 0.796875 1.90625 0.375 2.59375 0.375 C2.76563 0.375 2.9375 0.390625 3.01563 0.4375 C3.09375 0.484375 3.125 0.5 3.17188 0.5 C3.26563 0.5 3.34375 0.421875 3.34375 0.3125 C3.34375 0.140625 3.01563 0 2.64063 0 C2.04688 0 1.46875 0.21875 0.984375 0.640625 C0.3125 1.20313 0 1.98438 0 3.03125 C0 4.59375 0.75 5.70313 1.8125 5.70313 C2.6875 5.70313 3.375 4.9375 3.375 3.95313 C3.375 3.04688 2.6875 2.28125 1.875 2.28125 C1.23438 2.28125 0.75 2.64063 0.375 3.39063 Z M0.421875 3.875 C0.640625 3.46875 0.75 3.3125 0.875 3.17188 C1.17188 2.84375 1.53125 2.65625 1.85938 2.65625 C2.48438 2.65625 3 3.25 3 3.95313 C3 4.73438 2.48438 5.32813 1.82813 5.32813 C1.21875 5.32813 0.75 4.92188 0.515625 4.17188 C0.484375 4.09375 0.484375 4.07813 0.421875 3.875 Z"/>
    <path style="fill:#171615; fill-rule:nonzero;stroke:none;" transform="translate(75.6, 0.046875)" d="M1.875 0 L0.203125 0.53125 C0.0625 0.578125 0.015625 0.625 0.015625 0.734375 C0.015625 0.8125 0.109375 0.90625 0.1875 0.90625 C0.203125 0.90625 0.28125 0.890625 0.3125 0.875 L1.5 0.5 L1.5 5.14063 L0.25 5.14063 C0.078125 5.14063 0 5.20313 0 5.32813 C0 5.45313 0.09375 5.51563 0.25 5.51563 L3.125 5.51563 C3.28125 5.51563 3.375 5.45313 3.375 5.32813 C3.375 5.20313 3.28125 5.14063 3.125 5.14063 L1.875 5.14063 L1.875 0 Z"/>
    <path style="fill:#171615; fill-rule:nonzero;stroke:none;" transform="translate(81, 0)" d="M2.35938 2.75 C3 2.42188 3.28125 2.03125 3.28125 1.48438 C3.28125 0.671875 2.54688 0 1.6875 0 C0.828125 0 0.09375 0.671875 0.09375 1.48438 C0.09375 2.03125 0.375 2.42188 1.01563 2.75 C0.359375 3.04688 0 3.51563 0 4.10938 C0 4.98438 0.75 5.70313 1.6875 5.70313 C2.60938 5.70313 3.375 4.98438 3.375 4.10938 C3.375 3.51563 3.01563 3.04688 2.35938 2.75 Z M1.6875 0.375 C2.375 0.375 2.90625 0.875 2.90625 1.51563 C2.90625 2.09375 2.35938 2.5625 1.6875 2.5625 C1 2.5625 0.453125 2.09375 0.453125 1.5 C0.453125 0.875 1 0.375 1.6875 0.375 Z M1.6875 2.92188 C2.4375 2.92188 3 3.4375 3 4.125 C3 4.78125 2.40625 5.32813 1.6875 5.32813 C0.953125 5.32813 0.375 4.78125 0.375 4.10938 C0.375 3.45313 0.953125 2.92188 1.6875 2.92188 Z"/>
    <path style="fill:#171615; fill-rule:nonzero;stroke:none;" transform="translate(86.4, 0.046875)" d="M1.875 0 L0.203125 0.53125 C0.0625 0.578125 0.015625 0.625 0.015625 0.734375 C0.015625 0.8125 0.109375 0.90625 0.1875 0.90625 C0.203125 0.90625 0.28125 0.890625 0.3125 0.875 L1.5 0.5 L1.5 5.14063 L0.25 5.14063 C0.078125 5.14063 0 5.20313 0 5.32813 C0 5.45313 0.09375 5.51563 0.25 5.51563 L3.125 5.51563 C3.28125 5.51563 3.375 5.45313 3.375 5.32813 C3.375 5.20313 3.28125 5.14063 3.125 5.14063 L1.875 5.14063 L1.875 0 Z"/>
    <path style="fill:#171615; fill-rule:nonzero;stroke:none;" transform="translate(91.8, 0)" d="M3.375 2.40625 C3.375 0.96875 2.6875 0 1.6875 0 C0.6875 0 0 0.96875 0 2.40625 L0 3.29688 C0 4.71875 0.6875 5.70313 1.6875 5.70313 C2.6875 5.70313 3.375 4.71875 3.375 3.29688 L3.375 2.40625 Z M0.375 2.45313 C0.375 1.875 0.53125 1.26563 0.796875 0.84375 C1 0.546875 1.3125 0.375 1.6875 0.375 C2.0625 0.375 2.375 0.546875 2.5625 0.84375 C2.84375 1.26563 3 1.875 3 2.45313 L3 3.25 C3 3.82813 2.84375 4.4375 2.5625 4.84375 C2.375 5.15625 2.0625 5.32813 1.6875 5.32813 C1.3125 5.32813 1 5.15625 0.796875 4.84375 C0.53125 4.4375 0.375 3.82813 0.375 3.25 L0.375 2.45313 Z"/>
   </g>
   <path style="fill:none;stroke-width:0.936; stroke-linecap:butt; stroke-linejoin:miter; stroke-dasharray:none; stroke:#171615;" transform="translate(102.912, 18.2184)" d="M0 61.3441 L0 0 "/>
   <path style="fill:none;stroke-width:1.872; stroke-linecap:butt; stroke-linejoin:miter; stroke-dasharray:none; stroke:#171615;" transform="translate(105.252, 18.2184)" d="M0 61.3441 L0 0 "/>
   <path style="fill:none;stroke-width:2.808; stroke-linecap:butt; stroke-linejoin:miter; stroke-dasharray:none; stroke:#171615;" transform="translate(108.528, 18.2184)" d="M0 61.3441 L0 0 "/>
   <path style="fill:none;stroke-width:0.936; stroke-linecap:butt; stroke-linejoin:miter; stroke-dasharray:none; stroke:#171615;" transform="translate(112.272, 18.2184)" d="M0 61.3441 L0 0 "/>
   <path style="fill:none;stroke-width:0.936; stroke-linecap:butt; stroke-linejoin:miter; stroke-dasharray:none; stroke:#171615;" transform="translate(114.144, 18.2184)" d="M0 61.3441 L0 0 "/>
   <path style="fill:none;stroke-width:1.872; stroke-linecap:butt; stroke-linejoin:miter; stroke-dasharray:none; stroke:#171615;" transform="translate(117.42, 18.2184)" d="M0 61.3441 L0 0 "/>
   <path style="fill:none;stroke-width:1.872; stroke-linecap:butt; stroke-linejoin:miter; stroke-dasharray:none; stroke:#171615;" transform="translate(120.228, 18.2184)" d="M0 61.3441 L0 0 "/>
   <path style="fill:none;stroke-width:0.936; stroke-linecap:butt; stroke-linejoin:miter; stroke-dasharray:none; stroke:#171615;" transform="translate(122.568, 18.2184)" d="M0 61.3441 L0 0 "/>
   <path style="fill:none;stroke-width:2.808; stroke-linecap:butt; stroke-linejoin:miter; stroke-dasharray:none; stroke:#171615;" transform="translate(125.376, 18.2184)" d="M0 61.3441 L0 0 "/>
   <path style="fill:none;stroke-width:1.872; stroke-linecap:butt; stroke-linejoin:miter; stroke-dasharray:none; stroke:#171615;" transform="translate(128.652, 18.2184)" d="M0 61.3441 L0 0 "/>
   <path style="fill:none;stroke-width:0.936; stroke-linecap:butt; stroke-linejoin:miter; stroke-dasharray:none; stroke:#171615;" transform="translate(130.992, 18.2184)" d="M0 61.3441 L0 0 "/>
   <path style="fill:none;stroke-width:0.936; stroke-linecap:butt; stroke-linejoin:miter; stroke-dasharray:none; stroke:#171615;" transform="translate(134.736, 18.2184)" d="M0 61.3441 L0 0 "/>
   <path style="fill:none;stroke-width:1.872; stroke-linecap:butt; stroke-linejoin:miter; stroke-dasharray:none; stroke:#171615;" transform="translate(137.076, 18.2184)" d="M0 61.3441 L0 0 "/>
   <path style="fill:none;stroke-width:0.936; stroke-linecap:butt; stroke-linejoin:miter; stroke-dasharray:none; stroke:#171615;" transform="translate(139.416, 18.2184)" d="M0 61.3441 L0 0 "/>
   <path style="fill:none;stroke-width:1.872; stroke-linecap:butt; stroke-linejoin:miter; stroke-dasharray:none; stroke:#171615;" transform="translate(141.756, 18.2184)" d="M0 61.3441 L0 0 "/>
   <path style="fill:none;stroke-width:0.936; stroke-linecap:butt; stroke-linejoin:miter; stroke-dasharray:none; stroke:#171615;" transform="translate(145.968, 18.2184)" d="M0 61.3441 L0 0 "/>
   <g id="Group3" style="fill:none; stroke:none" transform="translate(110.089, 9.42276) scale(1, 1)">
    <path style="fill:#171615; fill-rule:nonzero;stroke:none;" transform="translate(0, 0.156222)" d="M1.03106 0.453043 L3.67121 0.453043 C3.88992 0.453043 3.98365 0.374932 3.98365 0.21871 C3.98365 0.0781108 3.88992 0 3.67121 0 L0.57802 0 L0.57802 2.95259 C0.57802 3.09319 0.671753 3.20254 0.781108 3.20254 C0.843597 3.20254 0.890463 3.1713 1.03106 3.10881 C1.48411 2.87448 1.96839 2.7495 2.40581 2.7495 C3.34314 2.7495 3.96803 3.42125 3.96803 4.40545 C3.96803 5.56149 3.23379 6.35822 2.15586 6.35822 C1.51535 6.35822 0.921707 6.10826 0.406176 5.62398 C0.328065 5.54587 0.281199 5.51462 0.21871 5.51462 C0.093733 5.51462 0 5.62398 0 5.73333 C0 5.87393 0.140599 6.03015 0.499909 6.26449 C1.04668 6.6238 1.59346 6.81126 2.1871 6.81126 C3.48374 6.81126 4.42107 5.81144 4.42107 4.42107 C4.42107 3.20254 3.5931 2.29646 2.48392 2.29646 C1.99964 2.29646 1.59346 2.39019 1.03106 2.62452 L1.03106 0.453043 Z"/>
    <path style="fill:#171615; fill-rule:nonzero;stroke:none;" transform="translate(6.4582, 0)" d="M0.43742 6.3426 L0.43742 6.31135 C1.06231 5.7802 1.74968 5.13969 2.70263 4.18674 C4.07738 2.85886 4.29609 2.54641 4.29609 1.89028 C4.29609 0.890463 3.34314 0 2.26521 0 C1.59346 0 0.984196 0.312443 0.57802 0.827974 C0.35931 1.09355 0.21871 1.42162 0.21871 1.6247 C0.21871 1.71844 0.328065 1.82779 0.43742 1.82779 C0.546776 1.82779 0.624886 1.7653 0.656131 1.60908 C0.843597 0.93733 1.51535 0.453043 2.26521 0.453043 C3.10881 0.453043 3.84305 1.1248 3.84305 1.87466 C3.84305 2.37457 3.62434 2.68701 2.59328 3.68683 L0 6.13951 L0 6.79564 L4.34296 6.79564 L4.34296 5.95204 C4.34296 5.74895 4.26485 5.65522 4.10863 5.65522 C3.96803 5.65522 3.88992 5.74895 3.88992 5.95204 L3.88992 6.3426 L0.43742 6.3426 Z"/>
    <path style="fill:#171615; fill-rule:nonzero;stroke:none;" transform="translate(13.2913, 0.156222)" d="M3.65559 0.640509 L1.89028 6.28011 C1.87466 6.32697 1.87466 6.40509 1.87466 6.43633 C1.87466 6.54568 1.96839 6.65504 2.09337 6.65504 C2.20272 6.65504 2.24959 6.59255 2.31208 6.42071 L4.10863 0.718619 L4.10863 0 L0 0 L0 0.827974 C0 1.04668 0.0781108 1.14042 0.234332 1.14042 C0.374932 1.14042 0.453043 1.04668 0.453043 0.827974 L0.453043 0.453043 L3.65559 0.453043 L3.65559 0.640509 Z"/>
    <path style="fill:#171615; fill-rule:nonzero;stroke:none;" transform="translate(20.2338, 0)" d="M3.65559 2.82761 C3.67121 3.0307 3.68683 3.20254 3.68683 3.29628 C3.68683 3.99927 3.49936 4.68665 3.18692 5.17093 C2.64014 5.99891 1.78093 6.51444 0.93733 6.51444 C0.734241 6.51444 0.531153 6.4832 0.421798 6.42071 C0.343687 6.37384 0.296821 6.35822 0.234332 6.35822 C0.109355 6.35822 0.0312443 6.45195 0.0312443 6.57693 C0.0312443 6.78002 0.421798 6.96748 0.890463 6.96748 C1.60908 6.96748 2.3277 6.68628 2.90572 6.18637 C3.71807 5.48338 4.10863 4.54605 4.10863 3.26503 C4.10863 1.34351 3.20254 0 1.9059 0 C0.827974 0 0 0.93733 0 2.12461 C0 3.24941 0.827974 4.17112 1.82779 4.17112 C2.6089 4.17112 3.20254 3.7337 3.65559 2.82761 Z M3.5931 2.23397 C3.32752 2.71826 3.20254 2.90572 3.04632 3.09319 C2.68701 3.48374 2.24959 3.71807 1.84341 3.71807 C1.07793 3.71807 0.453043 2.98383 0.453043 2.12461 C0.453043 1.17166 1.07793 0.453043 1.89028 0.453043 C2.64014 0.453043 3.20254 0.93733 3.49936 1.87466 C3.53061 1.96839 3.53061 1.98401 3.5931 2.23397 Z"/>
    <path style="fill:#171615; fill-rule:nonzero;stroke:none;" transform="translate(26.3952, 0.156222)" d="M1.03106 0.453043 L3.67121 0.453043 C3.88992 0.453043 3.98365 0.374932 3.98365 0.21871 C3.98365 0.0781108 3.88992 0 3.67121 0 L0.57802 0 L0.57802 2.95259 C0.57802 3.09319 0.671753 3.20254 0.781108 3.20254 C0.843597 3.20254 0.890463 3.1713 1.03106 3.10881 C1.48411 2.87448 1.96839 2.7495 2.40581 2.7495 C3.34314 2.7495 3.96803 3.42125 3.96803 4.40545 C3.96803 5.56149 3.23379 6.35822 2.15586 6.35822 C1.51535 6.35822 0.921707 6.10826 0.406176 5.62398 C0.328065 5.54587 0.281199 5.51462 0.21871 5.51462 C0.093733 5.51462 0 5.62398 0 5.73333 C0 5.87393 0.140599 6.03015 0.499909 6.26449 C1.04668 6.6238 1.59346 6.81126 2.1871 6.81126 C3.48374 6.81126 4.42107 5.81144 4.42107 4.42107 C4.42107 3.20254 3.5931 2.29646 2.48392 2.29646 C1.99964 2.29646 1.59346 2.39019 1.03106 2.62452 L1.03106 0.453043 Z"/>
    <path style="fill:#171615; fill-rule:nonzero;stroke:none;" transform="translate(38.2071, 1.09355)" d="M4.95222 2.6089 L0.35931 0.0624886 C0.312443 0.0312443 0.249955 0 0.21871 0 C0.156222 0 0.093733 0.0468665 0.0468665 0.109355 L0.0312443 0.140599 C0.0156222 0.187466 0 0.21871 0 0.249955 C0 0.328065 0.0468665 0.390554 0.140599 0.43742 L4.04614 2.6089 L0.140599 4.78038 C0.0468665 4.82725 0 4.88974 0 4.96785 C0 5.01471 0.0156222 5.04596 0.0312443 5.0772 L0.0468665 5.10845 C0.0781108 5.17093 0.156222 5.2178 0.21871 5.2178 C0.249955 5.2178 0.296821 5.20218 0.343688 5.17093 L4.95222 2.6089 Z"/>
   </g>
  </g>
 </g>
</svg>
