<svg version="1.1" viewBox="0.0 0.0 960.0 960.0" fill="none" stroke="none" stroke-linecap="square" stroke-miterlimit="10" xmlns:xlink="http://www.w3.org/1999/xlink" xmlns="http://www.w3.org/2000/svg"><clipPath id="p.0"><path d="m0 0l960.0 0l0 960.0l-960.0 0l0 -960.0z" clip-rule="nonzero"/></clipPath><g clip-path="url(#p.0)"><path fill="#000000" fill-opacity="0.0" d="m0 0l960.0 0l0 960.0l-960.0 0z" fill-rule="evenodd"/><path fill="#000000" fill-opacity="0.0" d="m0 0l960.0 0l0 960.0l-960.0 0z" fill-rule="evenodd"/><path fill="#292929" d="m47.600708 745.2969l0 -485.35938l292.20312 0l0 485.35938l-292.20312 0z" fill-rule="nonzero"/><path fill="#292929" d="m464.70227 628.7969q-20.0 0 -37.40625 -5.796875q-17.390625 -5.796875 -30.0 -19.1875q-12.59375 -13.40625 -19.796875 -35.0q-7.203125 -21.609375 -7.203125 -53.21875l0 -154.0l33.203125 0l0 154.8125q0 23.59375 4.796875 39.59375q4.796875 16.0 13.0 25.609375q8.203125 9.59375 19.40625 13.796875q11.203125 4.1875 24.0 4.1875q13.203125 0 24.390625 -4.1875q11.203125 -4.203125 19.59375 -13.796875q8.40625 -9.609375 13.203125 -25.609375q4.8125 -16.0 4.8125 -39.59375l0 -154.8125l32.0 0l0 154.0q0 31.609375 -7.203125 53.21875q-7.203125 21.59375 -19.8125 35.0q-12.59375 13.390625 -29.796875 19.1875q-17.1875 5.796875 -37.1875 5.796875z" fill-rule="nonzero"/><path fill="#000000" fill-opacity="0.0" d="m593.4992 230.3999l314.4001 0l0 502.8001l-314.4001 0l0 -502.8001z" fill-rule="nonzero"/><path fill="#292929" d="m658.2961 624.0l-55.59375 -262.40625l34.390625 0l27.609375 142.8125q3.59375 21.59375 7.59375 42.390625q4.0 20.796875 7.609375 42.40625l1.59375 0q4.40625 -21.609375 9.203125 -42.609375q4.796875 -21.0 9.203125 -42.1875l36.390625 -142.8125l30.40625 0l36.390625 142.8125q4.8125 20.796875 9.609375 42.0q4.796875 21.1875 9.59375 42.796875l1.609375 0q3.59375 -21.609375 7.1875 -42.609375q3.609375 -21.0 7.609375 -42.1875l27.59375 -142.8125l32.0 0l-54.390625 262.40625l-40.0 0l-39.609375 -158.0q-3.59375 -15.203125 -6.59375 -29.796875q-3.0 -14.609375 -6.203125 -29.796875l-1.59375 0q-3.203125 15.1875 -6.609375 29.796875q-3.390625 14.59375 -6.59375 29.796875l-38.796875 158.0l-39.609375 0z" fill-rule="nonzero"/><path fill="#000000" fill-opacity="0.0" d="m907.8993 230.3999l0 0l0 502.8001l0 0l0 -502.8001z" fill-rule="nonzero"/><path fill="#292929" d="m593.4992 486.0l314.4001 0l0 36.0l-314.4001 0l0 -36.0z" fill-rule="nonzero"/></g></svg>